<?xml version="1.0" encoding="UTF-8" standalone="no"?>
<!-- Created with Inkscape (http://www.inkscape.org/) -->

<svg
   xmlns:dc="http://purl.org/dc/elements/1.1/"
   xmlns:cc="http://creativecommons.org/ns#"
   xmlns:rdf="http://www.w3.org/1999/02/22-rdf-syntax-ns#"
   xmlns:svg="http://www.w3.org/2000/svg"
   xmlns="http://www.w3.org/2000/svg"
   xmlns:sodipodi="http://sodipodi.sourceforge.net/DTD/sodipodi-0.dtd"
   xmlns:inkscape="http://www.inkscape.org/namespaces/inkscape"
   width="793.70081"
   height="978.89764"
   viewBox="0 0 210 259"
   version="1.1"
   id="svg5193"
   inkscape:version="0.92.5 (2060ec1f9f, 2020-04-08)"
   sodipodi:docname="crusher.svg">
  <defs
     id="defs5187" />
  <sodipodi:namedview
     id="base"
     pagecolor="#ffffff"
     bordercolor="#666666"
     borderopacity="1.0"
     inkscape:pageopacity="0.0"
     inkscape:pageshadow="2"
     inkscape:zoom="0.35"
     inkscape:cx="228.57143"
     inkscape:cy="560"
     inkscape:document-units="mm"
     inkscape:current-layer="layer1"
     showgrid="false"
     units="px"
     inkscape:window-width="2560"
     inkscape:window-height="1369"
     inkscape:window-x="3632"
     inkscape:window-y="475"
     inkscape:window-maximized="1" />
  <metadata
     id="metadata5190">
    <rdf:RDF>
      <cc:Work
         rdf:about="">
        <dc:format>image/svg+xml</dc:format>
        <dc:type
           rdf:resource="http://purl.org/dc/dcmitype/StillImage" />
        <dc:title></dc:title>
      </cc:Work>
    </rdf:RDF>
  </metadata>
  <g
     inkscape:label="Calque 1"
     inkscape:groupmode="layer"
     id="layer1"
     transform="translate(0,-38)">
    <g
       id="g4584"
       transform="matrix(0.26458333,0,0,0.26458333,411.52747,-47.28079)">
      <ellipse
         ry="339.64822"
         rx="323.49387"
         cy="766.72211"
         cx="-1130.2051"
         id="path4570"
         style="fill:#ffe9b8;fill-opacity:1;stroke:none;stroke-width:0.96256304;stroke-opacity:1" />
      <rect
         y="352.12421"
         x="-1435.7581"
         height="383.92899"
         width="56.794228"
         id="rect4544"
         style="fill:#cc8d41;fill-opacity:1;stroke:none;stroke-opacity:1" />
      <path
         inkscape:connector-curvature="0"
         id="path4576"
         d="m -1537.9877,1038.1985 143.1214,-56.79423 h 481.61511 l 124.9473,56.79423 v 72.6966 l -363.48311,165.8392 -386.2007,-170.3827 z"
         style="fill:#ffeab8;fill-opacity:1;stroke:none;stroke-width:1px;stroke-linecap:butt;stroke-linejoin:miter;stroke-opacity:1" />
      <rect
         y="795.04626"
         x="-1433.7581"
         height="322.93594"
         width="56.794228"
         id="rect4544-4"
         style="fill:#cc8d41;fill-opacity:1;stroke:none;stroke-width:0.91713387;stroke-opacity:1" />
      <rect
         y="715.6073"
         x="-1453.9323"
         height="86.327225"
         width="127.21907"
         id="rect4568"
         style="fill:#ca4927;fill-opacity:1;stroke:none;stroke-opacity:1" />
      <path
         style="fill:#6b330e;fill-opacity:1;stroke:none;stroke-width:1.33333325"
         d="m -1196.1075,1284.7747 c -44.0155,-20.1372 -129.6998,-58.9885 -253.3333,-114.8674 -65.976,-29.8194 -94.5767,-43.3872 -97.5752,-46.2885 -2.8216,-2.7301 -4.6627,-6.1668 -5.4989,-10.2648 -0.6914,-3.3882 -1.1826,-22.6605 -1.0915,-42.8271 0.1795,-39.7607 0.6473,-42.5298 7.9984,-47.3464 1.7109,-1.121 21.0484,-9.9108 42.9723,-19.5329 21.9238,-9.62205 40.4094,-17.98835 41.0791,-18.59195 0.6977,-0.6287 1.479,-37.18096 1.8299,-85.60626 l 0.6124,-84.509 -8.2582,-9.1126 c -15.9211,-17.5683 -17.9643,-24.9932 -17.0239,-61.8628 0.3896,-15.2785 1.6672,-33.4898 2.8828,-41.09381 2.6819,-16.77619 11.2137,-51.30675 16.8865,-68.3443 l 4.2175,-12.66667 0.418,-125.33333 c 0.2299,-68.93333 0.7622,-127.62893 1.183,-130.43467 2.042,-13.61639 15.0443,-29.94674 29.5164,-37.07134 32.0804,-15.79311 68.7869,-0.23263 79.3253,33.62729 2.276,7.31276 2.5261,12.72473 2.5261,54.66417 0,39.58131 0.2867,46.54788 1.9161,46.54788 1.0538,0 7.2038,-3.3448 13.6667,-7.43289 18.8118,-11.89957 51.5986,-27.54628 71.7968,-34.26328 38.509,-12.80637 62.5526,-16.89232 105.287,-17.89244 52.408,-1.22651 91.9955,5.47109 136.6667,23.122 131.41489,51.92581 217.33329,179.43244 217.33329,322.53199 0,17.6462 0.3039,20.0233 3.9516,30.9109 2.1734,6.4871 4.942,17.4712 6.1525,24.4092 5.7468,32.9369 -4.6578,66.7128 -29.7294,96.5088 -8.7298,10.3748 -8.7996,10.5212 -6.9716,14.6261 1.0156,2.2804 1.8579,8.0463 1.8717,12.8129 0.021,7.3062 -0.8797,10.7599 -5.7386,22 -3.17,7.3334 -8.4666,18.0493 -11.7702,23.8131 -4.0116,6.99906 -5.5629,10.92336 -4.6708,11.81546 0.7347,0.7346 17.6962,8.7702 37.6924,17.85665 19.9961,9.0866 37.7993,17.4663 39.5626,18.6216 6.473,4.2414 6.9832,8.0063 6.9832,51.5379 0,36.1634 -0.2484,40.86 -2.3698,44.8156 -2.8249,5.2673 -2.9787,5.3568 -30.9636,18.0096 -12.1,5.4708 -47.8,21.7646 -79.3333,36.2085 -58.9579,27.0057 -77.3207,35.398 -131.33329,60.0232 -17.2334,7.8569 -56.8334,25.9711 -88,40.2538 -31.1667,14.2826 -58.4667,26.2221 -60.6667,26.5321 -3.0267,0.4266 -12.7599,-3.4439 -40,-15.9063 z m 69.5332,-38.1027 c 16.0234,-7.2535 51.0335,-23.217 77.8001,-35.4745 54.91529,-25.1478 136.9481,-62.6351 201.33339,-92.0053 23.8333,-10.8718 44.3833,-20.6621 45.6666,-21.7561 2.0391,-1.7383 2.3334,-4.6348 2.3334,-22.9682 0,-18.0834 -0.3221,-21.344 -2.3334,-23.6241 -1.8959,-2.1493 -22.169,-11.9077 -67.43819,-32.4615 -3.70221,-1.6809 -3.9719,-1.5043 -14.6666,9.6047 -42.75301,44.4087 -94.98181,74.2712 -155.7119,89.0304 -29.4489,7.1569 -43.9106,8.7564 -78.5166,8.6843 -33.473,-0.07 -46.5943,-1.4448 -75.7403,-7.937 -48.5213,-10.8081 -99.626,-35.6397 -137.9224,-67.0159 -6.4144,-5.2554 -12.5018,-9.5553 -13.5275,-9.5553 -1.5178,0 -1.958,4.9013 -2.3652,26.3334 -0.4811,25.3182 -0.6398,26.6334 -4.1188,34.1167 -9.4395,20.3046 -27.8524,31.5499 -51.6591,31.5499 -23.3276,0 -41.5162,-10.6975 -52.141,-30.6666 -3.0718,-5.7735 -3.2175,-7.3081 -3.859,-40.6504 -0.6032,-31.3479 -0.8845,-34.6921 -2.9517,-35.0885 -1.8903,-0.3624 -38.6773,15.2813 -50.3817,21.4248 l -3.3333,1.7497 v 23.8732 23.8733 l 18,8.2665 c 9.9,4.5466 79.5,36.1697 154.6667,70.2737 75.1666,34.1039 147.1666,66.8208 160,72.7042 12.8333,5.8834 24.3232,10.7442 25.5332,10.8019 1.2099,0.058 15.3099,-5.8298 31.3333,-13.0833 z m -262.1999,-156.8993 3.3334,-3.3061 V 952.83009 819.19359 h -18 -18 l -0.3398,132.387 c -0.3761,146.50931 -0.8023,138.99951 8.0232,141.37291 2.3741,0.6385 8.2166,0.9278 12.9832,0.6431 7.0284,-0.42 9.2968,-1.1428 12,-3.8239 z m 308,-2.0534 c 49.8802,-5.757 103.22739,-28.4855 145.6709,-62.063 14.84489,-11.7439 38.16869,-35.69165 48.919,-50.22761 12.2971,-16.6274 21.41009,-31.3813 21.41009,-34.6626 0,-3.2446 -1.0679,-2.9879 -23.51019,5.6521 -40.18901,15.4721 -86.60151,23.5231 -155.8231,27.03 -81.021,4.1046 -195.1466,-8.1806 -276.6667,-29.7824 -11.3666,-3.012 -21.8666,-5.5504 -23.3333,-5.641 -2.5567,-0.1578 -2.6817,0.7826 -3.0314,22.8102 l -0.3647,22.97466 8.4371,9.662 c 19.9687,22.86775 54.246,48.56335 85.6257,64.18845 54.2266,27.0016 112.0065,37.0603 172.6666,30.0592 z m 94.3232,-178.31861 c 9.2867,-0.7724 11.48349,-1.4276 14.17549,-4.2273 1.8644,-1.9391 7.1358,-13.8194 12.7106,-28.6465 6.5643,-17.4585 10.5738,-26.2659 12.8989,-28.3333 3.1907,-2.8372 4.4965,-3 24.0539,-3 11.8131,0 21.79471,0.5966 23.28,1.3914 1.46451,0.7838 6.8854,10.3296 12.4125,21.8574 10.91961,22.7748 11.49031,23.3073 22.2206,20.7331 12.9587,-3.1087 30.293,-26.6285 35.9622,-48.7946 4.5068,-17.6216 2.6916,-34.4482 -5.9245,-54.9192 -3.2646,-7.7563 -3.4462,-9.4223 -3.4462,-31.6139 0,-38.4202 -4.6783,-69.46069 -15.2859,-101.42104 -15.9642,-48.09986 -39.2865,-85.9895 -74.6425,-121.26518 -35.6063,-35.52528 -73.36109,-58.76933 -121.30479,-74.68234 -32.9017,-10.92042 -60.8826,-15.28568 -97.9793,-15.28568 -72.279,0 -141.324,24.22308 -191.1208,67.05102 l -9,7.74048 v 91.29949 91.29951 l 3,1.17037 c 1.65,0.64371 6.6311,2.18985 11.0692,3.43588 23.2841,6.53729 37.9308,27.60839 37.9308,54.56839 0,29.6344 -15.7186,50.687 -43.3334,58.0384 l -8,2.1297 -0.3592,29.7988 c -0.2428,20.1353 0.1142,30.3694 1.1009,31.5583 3.2559,3.9231 39.4291,12.5763 52.5731,12.5763 7.2291,0 10.2649,-3.8165 18.6723,-23.4744 4.3209,-10.1029 8.9415,-19.4541 10.2679,-20.7806 2.1411,-2.1411 5.0036,-2.4116 25.5126,-2.4116 22.3713,0 23.1918,0.097 25.9776,3.062 2.1273,2.2645 20.2548,47.9642 20.2548,51.0628 0,0.2604 1.938,1.4755 4.3066,2.7004 3.1774,1.643 10.544,2.5761 28.0934,3.5582 22.716,1.2712 23.9453,1.2128 27.307,-1.2971 2.6687,-1.9925 5.8566,-8.7299 13.1808,-27.8572 6.8082,-17.7797 10.6844,-26.115 13.1275,-28.2291 3.3067,-2.8615 4.53,-3 26.4933,-3 22.1834,0 23.1263,0.1098 25.7506,3 1.4982,1.65 7.3542,15 13.0134,29.6666 10.7895,27.9628 11.6366,29.6234 16.0145,31.398 3.2724,1.3264 23.8976,1.4017 39.0361,0.1425 z m -5.8057,-177.5139 c -4.96451,-2.0059 -8.5175,-7.8955 -8.5175,-14.119 0,-4.9835 1.01589,-7.0079 7.77119,-15.4869 19.7943,-24.84504 35.6225,-36.60224 60.8955,-45.23324 8.4313,-2.8794 11.5666,-3.18744 32.4412,-3.18744 h 23.1078 l 3.8922,4.35437 c 2.9432,3.29271 3.8921,5.67096 3.8921,9.75432 0,12.31988 -4.4329,14.55272 -28.9337,14.5738 -20.60089,0.0177 -27.9753,1.46969 -39.9907,7.87383 -10.754,5.73178 -19.674,13.81513 -31.5797,28.61766 -7.8207,9.7236 -10.9574,12.6517 -14.2609,13.3124 -5.0199,1.0039 -5.106,0.9994 -8.71749,-0.4598 z m -94.7176,-1.3522 c -1.5768,-0.6361 -5.5785,-4.9566 -8.8927,-9.6011 -7.3823,-10.3454 -20.8128,-23.38354 -29.0137,-28.16624 -13.5743,-7.91642 -19.8991,-9.25312 -46.5601,-9.84022 -13.5667,-0.29874 -26.345,-1.1955 -28.3963,-1.9928 -4.5575,-1.77146 -7.6037,-7.30318 -7.6037,-13.80781 0,-3.78431 1.0383,-5.90453 4.6701,-9.53639 l 4.6702,-4.67016 26.9965,0.58836 c 23.4527,0.51114 28.2217,0.98676 36.3298,3.62323 19.7964,6.43705 35.9835,16.69329 50.302,31.87171 16.7848,17.79272 20.8959,26.50952 16.7718,35.56092 -2.7979,6.1408 -11.8791,8.9538 -19.2739,5.9705 z m -211.9803,-46.71406 c -7.8417,-2.42103 -16.9893,-9.71451 -21.352,-17.02426 -10.7344,-17.98537 -8.7955,-39.76367 7.493,-84.16201 4.2844,-11.67805 8.7803,-24.64008 9.9909,-28.8045 2.8687,-9.86792 7.2164,-13.96955 14.8076,-13.96955 8.2736,0 12.9577,4.43364 16.5825,15.69583 1.588,4.93396 6.1025,17.67084 10.0323,28.30417 11.3609,30.74075 13.2117,38.46703 13.2551,55.33333 0.034,13.04947 -0.3431,15.47527 -3.4158,22 -7.2651,15.42679 -17.8874,22.81679 -33.7903,23.50804 -5.1826,0.22527 -11.304,-0.1712 -13.6033,-0.88105 z m 19.106,-25.9581 c 10.0688,-7.05246 8.7243,-33.78766 -3.0365,-60.38094 -4.1652,-9.41823 -6.5627,-8.88703 -10.7361,2.37872 -10.5234,28.40695 -11.1781,51.16169 -1.6638,57.82574 3.8841,2.72055 11.677,2.80964 15.4364,0.17648 z m -62.3087,118.83736 c 12.1272,-5.563 12.7106,-30.0807 0.87,-36.565 -3.6537,-2.0009 -9.9213,-2.3241 -52.0843,-2.6862 -26.3619,-0.2264 -49.3119,-0.065 -51,0.3588 -2.9714,0.7457 -3.0692,1.2392 -3.0692,15.4778 0,16.7851 1.4308,20.9946 8.2641,24.3126 3.8731,1.8806 9.7739,2.0457 49.0692,1.373 28.7689,-0.4926 45.8353,-1.3009 47.9502,-2.271 z m -42.9493,-238.83958 c 0.3736,-180.36109 1.0671,-166.97293 -9.0009,-173.7589 -9.6603,-6.51123 -23.4729,-1.15055 -26.6677,10.34977 -1.508,5.42833 -1.9058,323.05782 -0.4065,324.55714 0.5092,0.50917 8.7592,0.75917 18.3333,0.55555 l 17.4076,-0.37023 z"
         id="path4530"
         inkscape:connector-curvature="0" />
    </g>
  </g>
</svg>
