<svg style="height: 512px; width: 512px;" xmlns="http://www.w3.org/2000/svg" viewBox="0 0 512 512"><g class="" style="" transform="translate(0,0)"><g><path d="M250.52999877929688 22.030000686645508C193.47500610351562 67.18699645996094 169.85699462890625 59.84000015258789 150.22000122070312 22.25C166.8179931640625 83.76699829101562 160.6280059814453 88.66500091552734 105.5 138.843994140625C172.82400512695312 103.1780014038086 201.70599365234375 104.60600280761719 236.47000122070312 146.031005859375C201.56399536132812 92.91899871826172 205.51600646972656 70.68099975585938 250.52999877929688 22.0310001373291Z" class="" fill="currentColor" fill-opacity="0"></path><path d="M268.93701171875 22.1560001373291L280.625 137.093994140625L180.75 195.18800354003906L278.5 216.281005859375C268.9200134277344 224.63299560546875 258.2860107421875 235.3090057373047 247.22000122070312 246.37600708007812L247.18800354003906 246.406005859375L18.562999725341797 472.43798828125L18.562999725341797 491.8760070800781L50.71900177001953 491.8760070800781L273.3429870605469 272.5C283.6029968261719 262.23699951171875 292.2449951171875 252.96200561523438 299.12298583984375 244.75L318.0610046386719 332.5L376.1549987792969 232.625L491.0929870605469 244.31300354003906L414.06298828125 158.218994140625L460.7179870605469 52.52899932861328L355.02801513671875 99.18599700927734L268.9360046386719 22.1560001373291Z" class="" fill="currentColor" fill-opacity="1"></path><path d="M26.875 55.9379997253418C60.63999938964844 83.5979995727539 62.084999084472656 98.70500183105469 57.625 143.71800231933594C76.5999984741211 89.98799896240234 85.58899688720703 76.4209976196289 122.125 61.71799850463867C82.97200012207031 71.09400177001953 66.20999908447266 73 26.875 55.939998626708984Z" class="" fill="currentColor" fill-opacity="0"></path><path d="M81.625 158.343994140625C106.58000183105469 185.3560028076172 108.59500122070312 202.0279998779297 105.875 230.406005859375C120.6500015258789 195.95599365234375 127.9469985961914 184.74600219726562 161.5 166.093994140625C126.94000244140625 177.27699279785156 116 176.31399536132812 81.625 158.343994140625Z" class="" fill="currentColor" fill-opacity="0"></path><path d="M407.218994140625 253.343994140625C416.489013671875 305.0379943847656 402.6090087890625 327.052001953125 374.3739929199219 360.031005859375C417.67401123046875 322.9880065917969 432.22601318359375 315.74700927734375 471.2179870605469 321.281005859375C432.6210021972656 309.8240051269531 423.7919921875 300.6570129394531 407.2179870605469 253.34500122070312Z" class="" fill="currentColor" fill-opacity="0"></path><path d="M351.5610046386719 326.156005859375C332.8559875488281 394.9460144042969 306.2569885253906 410.1000061035156 243.93600463867188 396.281005859375C298.06201171875 416.3810119628906 300.2760009765625 417.35101318359375 297.4679870605469 481.531005859375C322.2250061035156 426.1109924316406 343.9580078125 429.3139953613281 392.52801513671875 444.3139953613281C350.75299072265625 412.47601318359375 346.8179931640625 395.343994140625 351.5610046386719 326.1570129394531Z" class="" fill="currentColor" fill-opacity="0"></path><path d="M460.9049987792969 382.1260070800781C445.5849914550781 400.1199951171875 437.9729919433594 399.6159973144531 417.0929870605469 391.468994140625C439.9209899902344 409.9129943847656 434.6889953613281 425.4930114746094 427.93701171875 450.8739929199219C443.98699951171875 431.7539978027344 451.4530029296875 425.6369934082031 478.2489929199219 438.1860046386719C455.3890075683594 416.843994140625 451.1189880371094 408.3290100097656 460.9049987792969 382.1239929199219Z" class="selected" fill="currentColor" fill-opacity="0"></path></g></g></svg>